<?xml version="1.0" encoding="UTF-8" standalone="no"?>
<!-- Generator: Adobe Illustrator 19.0.0, SVG Export Plug-In . SVG Version: 6.00 Build 0)  -->

<svg
   version="1.1"
   id="Layer_1"
   x="0px"
   y="0px"
   viewBox="0 0 502 502"
   style="enable-background:new 0 0 502 502;"
   xml:space="preserve"
   sodipodi:docname="owl-svgrepo-com_4.svg"
   inkscape:version="1.1.2 (0a00cf5339, 2022-02-04, custom)"
   xmlns:inkscape="http://www.inkscape.org/namespaces/inkscape"
   xmlns:sodipodi="http://sodipodi.sourceforge.net/DTD/sodipodi-0.dtd"
   xmlns="http://www.w3.org/2000/svg"
   xmlns:svg="http://www.w3.org/2000/svg"><defs
   id="defs53">
	

		
	
			
			
			
			
			
			
		</defs><sodipodi:namedview
   id="namedview51"
   pagecolor="#ffffff"
   bordercolor="#666666"
   borderopacity="1.0"
   inkscape:pageshadow="2"
   inkscape:pageopacity="0.0"
   inkscape:pagecheckerboard="0"
   showgrid="true"
   inkscape:zoom="1.0240371"
   inkscape:cx="-83.004805"
   inkscape:cy="267.56843"
   inkscape:window-width="1771"
   inkscape:window-height="969"
   inkscape:window-x="602"
   inkscape:window-y="154"
   inkscape:window-maximized="0"
   inkscape:current-layer="Layer_1"><inkscape:grid
     type="xygrid"
     id="grid1449" /></sodipodi:namedview>
<rect
   style="fill:#ffffff;fill-opacity:1"
   id="rect3117"
   width="50"
   height="50"
   x="400"
   y="50" /><rect
   style="fill:#ffffff;fill-opacity:1"
   id="rect3013"
   width="50"
   height="50"
   x="50"
   y="50" /><ellipse
   style="fill:#ececec;fill-opacity:1;stroke-width:0.927624"
   id="path2116"
   cx="253.93546"
   cy="250.70171"
   rx="236.08772"
   ry="246.38692" /><g
   id="g2957"
   style="fill:#999999"><rect
     style="fill:#999999;fill-opacity:1;stroke-width:1.18634"
     id="rect2562"
     width="40"
     height="95"
     x="230"
     y="255" /><rect
     style="fill:#999999;fill-opacity:1;stroke-width:0.720083"
     id="rect2564"
     width="35"
     height="40"
     x="356.27621"
     y="75.183632"
     transform="rotate(37.969575)" /><rect
     style="fill:#999999;fill-opacity:1;stroke-width:0.720083"
     id="rect2764"
     width="35"
     height="40"
     x="-38.397568"
     y="385.73605"
     transform="matrix(-0.78833757,0.61524294,0.61524294,0.78833757,0,0)" /></g><path
   d="M 463,116.612 V 46 c 0,-5.522 -4.477,-10 -10,-10 H 380.545 C 341.526,12.444 296.801,0 251,0 205.199,0 160.474,12.444 121.455,36 H 45 c -5.523,0 -10,4.478 -10,10 v 77.1 C 12.098,161.704 0,205.86 0,251 0,318.045 26.108,381.076 73.516,428.483 120.924,475.892 183.956,502 251,502 318.044,502 381.076,475.892 428.484,428.483 475.892,381.076 502,318.045 502,251 502,203.181 488.519,156.785 463,116.612 Z m 11,92.888 c 0,58.725 -47.776,106.5 -106.5,106.5 -53.604,0 -98.078,-39.81 -105.427,-91.417 -0.083,-0.585 -0.168,-1.169 -0.241,-1.756 C 261.285,218.46 261,214.013 261,209.5 261,150.775 308.776,103 367.5,103 426.224,103 474,150.775 474,209.5 Z M 288.629,308.407 251,346.036 213.371,308.407 c 16.602,-13.229 29.475,-30.259 37.629,-49.508 8.154,19.249 21.027,36.278 37.629,49.508 z M 408.988,56 H 443 v 33.381 l 0.019,0.059 C 432.741,77.259 421.303,66.031 408.932,55.983 Z M 129.522,54.501 C 165.95,31.93 207.957,20 251,20 c 43.043,0 85.05,11.93 121.478,34.501 18,11.152 34.514,24.888 48.881,40.555 C 405.008,87.33 386.752,83 367.5,83 315.224,83 270.253,114.875 251,160.209 231.747,114.875 186.776,83 134.5,83 115.256,83 97.006,87.327 80.66,95.047 95.006,79.401 111.472,65.685 129.522,54.501 Z M 55,94.225 V 56 h 37.998 l 0.059,-0.019 C 79.048,67.353 66.26,80.22 54.98,94.29 Z M 134.5,103 c 58.724,0 106.5,47.775 106.5,106.5 0,4.513 -0.285,8.96 -0.832,13.327 -0.073,0.587 -0.158,1.171 -0.241,1.756 C 232.578,276.19 188.104,316 134.5,316 75.776,316 28,268.225 28,209.5 28,150.775 75.776,103 134.5,103 Z M 251,482 C 128.004,482 27.163,385.372 20.376,264.043 40.781,306.567 84.267,336 134.5,336 c 22.489,0 43.622,-5.906 61.941,-16.238 l 47.488,47.488 c 1.953,1.952 4.512,2.929 7.071,2.929 2.559,0 5.119,-0.977 7.071,-2.929 l 47.488,-47.488 C 323.878,330.094 345.011,336 367.5,336 417.733,336 461.219,306.567 481.624,264.043 474.837,385.372 373.996,482 251,482 Z"
   id="path2" /><path
   d="M 365.14,409.123 C 331.779,433.248 292.31,446 251,446 c -12.153,0 -24.318,-1.125 -36.158,-3.344 -5.429,-1.015 -10.654,2.559 -11.671,7.987 -1.017,5.428 2.559,10.653 7.987,11.671 13.051,2.446 26.456,3.686 39.842,3.686 45.545,0 89.067,-14.063 125.86,-40.67 4.475,-3.236 5.479,-9.488 2.243,-13.963 -3.235,-4.477 -9.488,-5.479 -13.963,-2.244 z"
   id="path4" /><path
   d="m 157.792,422.326 c -14.07,-7.673 -27.195,-17.091 -39.009,-27.994 -4.059,-3.746 -10.385,-3.492 -14.131,0.566 -3.746,4.058 -3.492,10.386 0.566,14.131 13.021,12.017 27.488,22.398 43,30.855 1.52,0.829 3.161,1.223 4.778,1.223 3.542,0 6.974,-1.886 8.789,-5.215 2.643,-4.848 0.856,-10.922 -3.993,-13.566 z"
   id="path6" /><path
   id="path935"
   style="fill:#ffcb10;fill-opacity:1;stroke-width:1"
   d="m 133.64648,106.10938 a 101.80029,101.80051 0 0 0 -101.800777,101.801 101.80029,101.80051 0 0 0 101.800777,101.801 101.80029,101.80051 0 0 0 101.80079,-101.801 101.80029,101.80051 0 0 0 -101.80079,-101.801 z" /><path
   d="m 367.5,117 c -5.523,0 -10,4.478 -10,10 0,5.522 4.477,10 10,10 39.977,0 72.5,32.523 72.5,72.5 0,5.522 4.477,10 10,10 5.523,0 10,-4.478 10,-10 0,-51.005 -41.495,-92.5 -92.5,-92.5 z"
   id="path12" />
<g
   id="g20">
</g>
<g
   id="g22">
</g>
<g
   id="g24">
</g>
<g
   id="g26">
</g>
<g
   id="g28">
</g>
<g
   id="g30">
</g>
<g
   id="g32">
</g>
<g
   id="g34">
</g>
<g
   id="g36">
</g>
<g
   id="g38">
</g>
<g
   id="g40">
</g>
<g
   id="g42">
</g>
<g
   id="g44">
</g>
<g
   id="g46">
</g>
<g
   id="g48">
</g>
<circle
   style="fill:#000000;fill-opacity:1;stroke-width:1.3367"
   id="path1678"
   cx="133.42917"
   cy="205.29736"
   r="43.442657" /><path
   id="path2002"
   style="fill:#ffcb10;fill-opacity:1;stroke-width:1"
   d="M 368,107 A 101.80029,101.80051 0 0 0 266.19922,208.801 101.80029,101.80051 0 0 0 368,310.602 101.80029,101.80051 0 0 0 469.80079,208.801 101.80029,101.80051 0 0 0 368,107 Z" /><circle
   style="fill:#000000;fill-opacity:1;stroke-width:1.3367"
   id="circle4979"
   cx="370.55838"
   cy="206.59438"
   r="43.442657" /></svg>
